<svg xmlns="http://www.w3.org/2000/svg" viewBox="0 0 32 32" id="no-protection"><path fill="#DD5E89" d="M28.5 6h-3v7.5a9.5 9.5 0 0 1-19 0V6h-3A2.5 2.5 0 0 0 1 8.5v15A2.5 2.5 0 0 0 3.5 26h6.76l-1.6 4H6.5a.5.5 0 0 0 0 1h19a.5.5 0 0 0 0-1h-2.16l-1.6-4h6.76a2.5 2.5 0 0 0 2.5-2.5v-15A2.5 2.5 0 0 0 28.5 6Zm-6.24 24H9.74l1.6-4h9.32Z"></path><path fill="#F7BB97" d="M16 16a4.5 4.5 0 1 0-4.5-4.5A4.51 4.51 0 0 0 16 16Zm-2.35-6.15a.49.49 0 0 1 .7-.7L16 10.79l1.65-1.64a.49.49 0 1 1 .7.7l-1.64 1.65 1.64 1.65a.48.48 0 0 1 0 .7.48.48 0 0 1-.7 0L16 12.21l-1.65 1.64a.48.48 0 0 1-.7 0 .48.48 0 0 1 0-.7l1.64-1.65Z"></path><path  d="M16 22a8.51 8.51 0 0 0 8.5-8.5v-10a.49.49 0 0 0-.38-.5l-8-2a1 1 0 0 0-.24 0l-8 2a.49.49 0 0 0-.38.48v10A8.51 8.51 0 0 0 16 22Zm0-16a5.5 5.5 0 1 1-5.5 5.5A5.51 5.51 0 0 1 16 6Z"></path></svg>